<svg width="18" height="18" viewBox="0 0 18 18" fill="none" xmlns="http://www.w3.org/2000/svg">
<path d="M16.8354 9.03607C16.8019 8.96482 16.7845 8.88769 16.7845 8.80968C16.7845 8.73167 16.8019 8.65454 16.8354 8.58329L17.3667 7.48162C17.4772 7.24995 17.5 6.98936 17.4314 6.74363C17.3628 6.4979 17.2069 6.282 16.9899 6.13218L15.9556 5.41913C15.8887 5.37345 15.8328 5.31489 15.7916 5.24729C15.7504 5.17969 15.7247 5.1046 15.7164 5.02695L15.5864 3.82546C15.5587 3.57217 15.4396 3.33565 15.2492 3.15576C15.0587 2.97586 14.8085 2.8636 14.5408 2.83788L13.2729 2.7131C13.189 2.70757 13.1073 2.68495 13.0335 2.6468C12.9597 2.60865 12.8955 2.55586 12.8452 2.49205L12.0916 1.51518C11.9332 1.30946 11.7047 1.16169 11.4446 1.09675C11.1845 1.03181 10.9087 1.05367 10.6636 1.15865L9.50307 1.64531C9.42817 1.67843 9.34649 1.69559 9.26381 1.69559C9.18113 1.69559 9.09946 1.67843 9.02455 1.64531L7.86027 1.14617C7.61554 1.04098 7.33992 1.019 7.08005 1.08397C6.82017 1.14894 6.59199 1.29685 6.43411 1.5027L5.68053 2.47958C5.63226 2.54287 5.57036 2.59577 5.49892 2.63479C5.42749 2.67381 5.34812 2.69807 5.26606 2.70597L3.99627 2.83075C3.72874 2.85653 3.47881 2.96886 3.28866 3.14878C3.09852 3.3287 2.9798 3.56519 2.95256 3.81833L2.82068 5.01982C2.81483 5.09921 2.79093 5.17646 2.75061 5.2463C2.71029 5.31614 2.65451 5.37692 2.58707 5.42447L1.55466 6.13752C1.33712 6.28691 1.18079 6.50282 1.11213 6.74872C1.04347 6.99462 1.06669 7.25541 1.17787 7.48697L1.69219 8.58329C1.72719 8.65416 1.74533 8.73144 1.74533 8.80968C1.74533 8.88791 1.72719 8.96519 1.69219 9.03607L1.16468 10.1377C1.05374 10.3696 1.03063 10.6306 1.09926 10.8767C1.16789 11.1228 1.32406 11.3391 1.54147 11.489L2.57388 12.202C2.64077 12.2477 2.69668 12.3063 2.73792 12.3738C2.77916 12.4414 2.8048 12.5165 2.81315 12.5942L2.94502 13.7939C2.9722 14.0472 3.09084 14.284 3.28096 14.4642C3.47108 14.6444 3.72105 14.7571 3.98873 14.7833L5.25852 14.9063C5.34242 14.9118 5.42407 14.9344 5.49788 14.9726C5.57169 15.0107 5.63592 15.0635 5.68618 15.1273L6.43976 16.106C6.5981 16.3113 6.82628 16.4588 7.08598 16.5237C7.34567 16.5886 7.62107 16.567 7.86592 16.4625L9.0302 15.9687C9.1055 15.9369 9.18702 15.9205 9.26946 15.9205C9.35191 15.9205 9.43342 15.9369 9.50873 15.9687L10.6674 16.4768C10.9125 16.5814 11.1882 16.6031 11.4482 16.5382C11.7082 16.4732 11.9367 16.3257 12.0954 16.1202L12.849 15.1416C12.8973 15.0783 12.9591 15.0254 13.0306 14.9864C13.102 14.9473 13.1814 14.9231 13.2635 14.9152L14.5314 14.7922C14.7992 14.7661 15.0495 14.6534 15.2399 14.4732C15.4303 14.2931 15.5494 14.0563 15.577 13.8028L15.7069 12.6031C15.7128 12.5237 15.7367 12.4465 15.777 12.3766C15.8173 12.3068 15.8731 12.246 15.9406 12.1984L16.9748 11.4854C17.192 11.3353 17.3479 11.1191 17.4165 10.873C17.4851 10.627 17.4622 10.3661 17.3516 10.1342L16.8354 9.03607Z" fill="#00D8FD"/>
<path d="M11.1496 17.0118C10.9197 17.0115 10.6925 16.9654 10.4827 16.8763L9.3184 16.3825C9.30388 16.3764 9.28815 16.3732 9.27224 16.3732C9.25634 16.3732 9.24061 16.3764 9.22609 16.3825L8.0618 16.8763C7.71696 17.0213 7.32998 17.05 6.96549 16.9575C6.60101 16.8651 6.28109 16.6571 6.05915 16.3683L5.30934 15.3896C5.29982 15.3773 5.28771 15.367 5.27376 15.3593C5.25982 15.3516 5.24435 15.3468 5.22833 15.3451L3.95477 15.2292C3.57746 15.1925 3.22508 15.0338 2.95704 14.7798C2.68901 14.5259 2.52172 14.1922 2.4834 13.8352L2.35341 12.6337C2.35252 12.6186 2.34839 12.6039 2.34126 12.5904C2.33413 12.5769 2.32416 12.565 2.31196 12.5553L1.27767 11.8422C0.975165 11.6322 0.757195 11.3311 0.659611 10.9883C0.562027 10.6455 0.590638 10.2815 0.74074 9.95618L1.2626 8.85452C1.26914 8.84048 1.27251 8.8253 1.27251 8.80995C1.27251 8.79461 1.26914 8.77943 1.2626 8.76539L0.74074 7.66551C0.58821 7.33911 0.558298 6.97315 0.655973 6.62843C0.753647 6.28372 0.973028 5.981 1.27767 5.77058L2.31196 5.05753C2.32498 5.04852 2.33588 5.03706 2.34399 5.02387C2.3521 5.01067 2.35723 4.99604 2.35906 4.98087L2.4834 3.78652C2.52213 3.42977 2.6896 3.09655 2.95759 2.84297C3.22559 2.58939 3.57775 2.43093 3.95477 2.39428L5.22268 2.27128C5.23923 2.27093 5.25552 2.26726 5.27047 2.26049C5.28541 2.25373 5.29866 2.24404 5.30934 2.23207L6.06292 1.2534C6.28474 0.967575 6.60268 0.761595 6.96453 0.669276C7.32638 0.576957 7.71065 0.603785 8.05427 0.745356L9.21667 1.23914C9.23151 1.24533 9.24755 1.24853 9.26377 1.24853C9.27998 1.24853 9.29603 1.24533 9.31087 1.23914L10.4752 0.745356C10.8201 0.60103 11.2069 0.572727 11.5712 0.665148C11.9355 0.757569 12.2554 0.96515 12.4778 1.2534L13.2314 2.23207C13.2409 2.24438 13.253 2.2547 13.267 2.26237C13.2809 2.27004 13.2964 2.2749 13.3124 2.27663L14.5822 2.39963C14.9573 2.43722 15.3075 2.59541 15.5742 2.84782C15.841 3.10022 16.0082 3.43155 16.0479 3.78652L16.1779 4.98622C16.1797 5.00138 16.1849 5.01602 16.193 5.02921C16.2011 5.04241 16.212 5.05387 16.225 5.06288L17.2574 5.77593C17.5623 5.98614 17.7819 6.28885 17.8796 6.63365C17.9773 6.97845 17.9472 7.34451 17.7943 7.67086L17.2725 8.77074C17.2659 8.78478 17.2626 8.79996 17.2626 8.8153C17.2626 8.83065 17.2659 8.84583 17.2725 8.85987L17.7943 9.96153C17.9472 10.2879 17.9773 10.6539 17.8796 10.9987C17.7819 11.3435 17.5623 11.6463 17.2574 11.8565L16.2175 12.5553C16.2044 12.5643 16.1935 12.5757 16.1854 12.5889C16.1773 12.6021 16.1722 12.6167 16.1704 12.6319L16.0479 13.8352C16.0095 14.1925 15.8419 14.5264 15.5735 14.7803C15.3051 15.0343 14.9523 15.1929 14.5746 15.2292L13.3049 15.3522C13.2888 15.3539 13.2734 15.3588 13.2594 15.3665C13.2455 15.3741 13.2334 15.3844 13.2238 15.3968L12.4703 16.3736C12.318 16.5701 12.1193 16.7302 11.89 16.841C11.6606 16.9518 11.4071 17.0103 11.1496 17.0118ZM7.38169 1.50297C7.27148 1.50331 7.1629 1.52817 7.06472 1.57555C6.96654 1.62293 6.88151 1.6915 6.8165 1.77571L6.06292 2.75081C5.97512 2.86555 5.8625 2.9613 5.73257 3.03168C5.60264 3.10207 5.45837 3.14548 5.30934 3.15903L4.05085 3.2856C3.89085 3.30183 3.74153 3.3694 3.62774 3.47707C3.51395 3.58474 3.44254 3.72603 3.42538 3.87743L3.29539 5.07714C3.27933 5.21688 3.23226 5.35184 3.15727 5.47318C3.08227 5.59453 2.98104 5.69951 2.86019 5.78127L1.82967 6.49432C1.69951 6.58373 1.60581 6.71279 1.5643 6.85983C1.52279 7.00687 1.536 7.16294 1.60171 7.30185L2.12357 8.40173C2.18414 8.53019 2.21545 8.66929 2.21545 8.80995C2.21545 8.95062 2.18414 9.08972 2.12357 9.21818L1.60171 10.3216C1.53564 10.4605 1.52224 10.6167 1.56378 10.7638C1.60531 10.9109 1.69922 11.04 1.82967 11.1292L2.86019 11.8422C2.98129 11.9254 3.08235 12.032 3.15671 12.155C3.23108 12.2779 3.27706 12.4143 3.29162 12.5553L3.42538 13.7443C3.44179 13.8961 3.51292 14.038 3.62681 14.1461C3.7407 14.2542 3.89043 14.3219 4.05085 14.3379L5.31876 14.4627C5.46629 14.4776 5.60883 14.5219 5.73706 14.5926C5.86529 14.6632 5.97633 14.7586 6.06292 14.8727L6.8165 15.8495C6.91096 15.9727 7.04724 16.0616 7.20256 16.1011C7.35789 16.1407 7.52286 16.1287 7.66994 16.067L8.83234 15.5679C8.96845 15.5106 9.11575 15.4811 9.26471 15.4811C9.41366 15.4811 9.56096 15.5106 9.69708 15.5679L10.8614 16.0617C11.0084 16.1233 11.1734 16.1354 11.3287 16.0958C11.4841 16.0562 11.6203 15.9674 11.7148 15.8442L12.4684 14.8727C12.5564 14.7581 12.669 14.6625 12.7989 14.5921C12.9288 14.5217 13.073 14.4782 13.222 14.4644L14.4918 14.3397C14.6506 14.3216 14.7981 14.2527 14.9098 14.1444C15.0215 14.0361 15.0907 13.8949 15.1059 13.7443L15.2378 12.5428C15.2544 12.4039 15.3015 12.2698 15.3761 12.1491C15.4507 12.0284 15.5512 11.9239 15.6711 11.8422L16.7035 11.1292C16.8333 11.0399 16.9269 10.9112 16.9687 10.7646C17.0105 10.6181 16.998 10.4624 16.9334 10.3234L16.4059 9.21996C16.3453 9.09117 16.3141 8.95179 16.3141 8.81085C16.3141 8.6699 16.3453 8.53053 16.4059 8.40173L16.9277 7.30007C16.992 7.16107 17.0043 7.00546 16.9625 6.85896C16.9207 6.71246 16.8274 6.58383 16.6979 6.49432L15.6711 5.78127C15.5498 5.69819 15.4487 5.59164 15.3743 5.46869C15.2999 5.34575 15.254 5.20924 15.2397 5.06822L15.1059 3.87743C15.089 3.72563 15.0175 3.58396 14.9032 3.47619C14.789 3.36842 14.639 3.30113 14.4786 3.2856L13.2088 3.1626C13.0618 3.1467 12.92 3.10185 12.7925 3.03093C12.6649 2.96 12.5545 2.86458 12.4684 2.75081L11.7148 1.77571C11.6206 1.6527 11.4846 1.5641 11.3295 1.52482C11.1744 1.48554 11.0098 1.49797 10.8632 1.56002L9.69708 2.0538C9.56096 2.11105 9.41366 2.14064 9.26471 2.14064C9.11575 2.14064 8.96845 2.11105 8.83234 2.0538L7.66805 1.56002C7.57807 1.52167 7.48038 1.50221 7.38169 1.50297Z" fill="white"/>
<path d="M13.4913 6.8579L12.4985 5.91846L8.37262 9.8224L6.03086 7.6066L5.03613 8.54605L8.37262 11.7031L13.4913 6.8579Z" fill="white"/>
</svg>
