<svg width="20" height="20" viewBox="0 0 20 20" fill="none" xmlns="http://www.w3.org/2000/svg">
<path fill-rule="evenodd" clip-rule="evenodd" d="M11.25 12.5063C11.25 11.8125 11.8125 11.25 12.5063 11.25H18.75C19.4375 11.25 20 11.8125 20 12.5063V18.75C20 19.4375 19.4375 20 18.7437 20H12.5C11.8125 20 11.25 19.4375 11.25 18.7438V12.5063ZM12.5 12.8188V18.4313C12.5 18.6063 12.6438 18.75 12.8188 18.75H18.4312C18.6063 18.75 18.75 18.6063 18.75 18.4313V12.8188C18.75 12.6438 18.6063 12.5 18.4312 12.5H12.8188C12.6438 12.5 12.5 12.6438 12.5 12.8188ZM0 12.5063C0 11.8125 0.5625 11.25 1.25625 11.25H7.5C8.1875 11.25 8.75 11.8125 8.75 12.5063V18.75C8.75 19.4375 8.1875 20 7.49375 20H1.25625C0.5625 20 0 19.4375 0 18.7438V12.5063ZM1.25 12.8188V18.4313C1.25 18.6063 1.39375 18.75 1.56875 18.75H7.18125C7.35625 18.75 7.5 18.6063 7.5 18.4313V12.8188C7.5 12.6438 7.35625 12.5 7.18125 12.5H1.56875C1.39375 12.5 1.25 12.6438 1.25 12.8188ZM11.25 1.2563C11.25 0.562546 11.8125 4.57764e-05 12.5063 4.57764e-05H18.75C19.4375 4.57764e-05 20 0.562546 20 1.2563V7.50005C20 8.18755 19.4375 8.75005 18.7437 8.75005H12.5C11.8125 8.75005 11.25 8.18755 11.25 7.4938V1.2563ZM12.5 1.5688V7.1813C12.5 7.3563 12.6438 7.50005 12.8188 7.50005H18.4312C18.6063 7.50005 18.75 7.3563 18.75 7.1813V1.5688C18.75 1.3938 18.6063 1.25005 18.4312 1.25005H12.8188C12.6438 1.25005 12.5 1.3938 12.5 1.5688ZM0 1.2563C0 0.562546 0.5625 4.57764e-05 1.25625 4.57764e-05H7.5C8.1875 4.57764e-05 8.75 0.562546 8.75 1.2563V7.50005C8.75 8.18755 8.1875 8.75005 7.49375 8.75005H1.25625C0.5625 8.75005 0 8.18755 0 7.4938V1.2563ZM1.25 1.5688V7.1813C1.25 7.3563 1.39375 7.50005 1.56875 7.50005H7.18125C7.35625 7.50005 7.5 7.3563 7.5 7.1813V1.5688C7.5 1.3938 7.35625 1.25005 7.18125 1.25005H1.56875C1.39375 1.25005 1.25 1.3938 1.25 1.5688Z" fill="#ADAFBF"/>
</svg>
